<?xml version="1.0" encoding="utf-8"?>
<!-- Generator: Adobe Illustrator 15.0.2, SVG Export Plug-In . SVG Version: 6.00 Build 0)  -->
<!DOCTYPE svg PUBLIC "-//W3C//DTD SVG 1.1//EN" "http://www.w3.org/Graphics/SVG/1.1/DTD/svg11.dtd">
<svg version="1.1" id="Layer_1" xmlns="http://www.w3.org/2000/svg" xmlns:xlink="http://www.w3.org/1999/xlink" x="0px" y="0px"
	 width="72px" height="72px" viewBox="0 0 72 72" enable-background="new 0 0 72 72" xml:space="preserve">
<g id="Layer_2">
</g>
<g id="Layer_1_1_">
	<g>
		<path fill="#FFFFFF" d="M32.023,12.28c10.211,0,18.516,8.3,18.516,18.504c0,10.204-8.305,18.504-18.516,18.504
			c-10.203,0-18.503-8.3-18.503-18.504C13.52,20.581,21.82,12.28,32.023,12.28 M32.023,10.061c-11.427,0-20.723,9.297-20.723,20.724
			c0,11.428,9.296,20.724,20.723,20.724c11.433,0,20.736-9.296,20.736-20.724C52.759,19.357,43.456,10.061,32.023,10.061
			L32.023,10.061z"/>
	</g>
	<g>
		<g>
			<g>
				<g>
					<path fill="#1C6FB7" d="M35.928,19.624l18.177,18.172c1.457,1.458,1.457,3.812,0,5.271L35.928,61.238
						c-1.45,1.45-3.812,1.45-5.266,0L12.489,43.066c-1.453-1.457-1.453-3.812,0-5.271l18.173-18.172
						C32.116,18.165,34.478,18.165,35.928,19.624z"/>
				</g>
				<defs>
					<filter id="Adobe_OpacityMaskFilter" filterUnits="userSpaceOnUse" x="11.399" y="18.53" width="43.799" height="43.796">
						<feColorMatrix  type="matrix" values="1 0 0 0 0  0 1 0 0 0  0 0 1 0 0  0 0 0 1 0"/>
					</filter>
				</defs>
				<mask maskUnits="userSpaceOnUse" x="11.399" y="18.53" width="43.799" height="43.796" id="SVGID_1_">
					<g filter="url(#Adobe_OpacityMaskFilter)">
						
							<image overflow="visible" enable-background="new    " width="44" height="45" xlink:href="A2B5A76E.jpg"  transform="matrix(1.1098 0 0 1.1098 8.7402 15.5381)">
						</image>
					</g>
				</mask>
				<g opacity="0.21" mask="url(#SVGID_1_)">
					<path d="M35.928,19.624l18.177,18.172c1.457,1.458,1.457,3.812,0,5.271L35.928,61.238c-1.45,1.45-3.812,1.45-5.266,0
						L12.489,43.066c-1.453-1.457-1.453-3.812,0-5.271l18.173-18.172C32.116,18.165,34.478,18.165,35.928,19.624z"/>
				</g>
			</g>
			<g>
				<path fill="#1F70B7" d="M61.019,0L33.998,37.711c-0.959,1.332-1.813,0.085-1.813,0.085l-2.893-3.827
					c1.466-4.255,0.916-9.131-1.896-13.068c-4.63-6.477-13.625-7.97-20.097-3.35c-6.473,4.631-7.973,13.626-3.35,20.096
					c3.705,5.18,10.194,7.167,15.956,5.392l12.339,10.104c0,0,0.746,0.698,1.572,0.028L72,21.125V0H61.019z"/>
			</g>
			
				<radialGradient id="SVGID_2_" cx="3006.9277" cy="-342.1045" r="10.5649" gradientTransform="matrix(-0.9931 0 0 -0.9931 3000.5269 -312.0627)" gradientUnits="userSpaceOnUse">
				<stop  offset="0" style="stop-color:#C51689"/>
				<stop  offset="1" style="stop-color:#781B56"/>
			</radialGradient>
			<path fill="url(#SVGID_2_)" d="M11.704,37.527c-1.388-0.036-2.707-0.33-3.919-0.831c1.903,1.881,4.501,3.078,7.395,3.152
				c6.002,0.139,10.999-4.61,11.143-10.623c0.108-4.62-2.673-8.637-6.694-10.313c2.053,2.037,3.295,4.882,3.222,7.998
				C22.703,32.92,17.707,37.677,11.704,37.527z"/>
			<path fill="#FFFFFF" d="M63.423,0L33.964,40.438c-0.841,0.937-1.58,0.444-1.874,0.1c-0.294-0.344-16.771-21.991-16.771-21.991
				l-9.977,10.73L32.292,50.95c0,0,0.665,0.611,1.391,0.02L72,18.644V0H63.423z"/>
			
				<radialGradient id="SVGID_3_" cx="1745.8623" cy="1152.2344" r="13.6033" gradientTransform="matrix(-0.6271 -0.7702 -0.7702 0.6271 1993.0388 650.8032)" gradientUnits="userSpaceOnUse">
				<stop  offset="0.0773" style="stop-color:#E6F4B0"/>
				<stop  offset="0.1869" style="stop-color:#E1F2A3"/>
				<stop  offset="0.3877" style="stop-color:#D5EB82"/>
				<stop  offset="0.6571" style="stop-color:#C1E04D"/>
				<stop  offset="0.9819" style="stop-color:#A5D203"/>
				<stop  offset="0.9948" style="stop-color:#A4D100"/>
			</radialGradient>
			<path fill="url(#SVGID_3_)" d="M7.351,19.545c-5.376,4.594-6.004,12.676-1.409,18.053C10.541,42.974,18.624,43.6,24,39.006
				c5.37-4.6,6-12.682,1.402-18.058C20.807,15.572,12.718,14.944,7.351,19.545z"/>
			<path fill="#91BD15" d="M20.952,35.83c-0.486,0.394-0.554,1.106-0.164,1.584c0.393,0.487,1.106,0.559,1.591,0.17
				c0.481-0.395,0.553-1.107,0.162-1.592C22.146,35.506,21.435,35.433,20.952,35.83z"/>
			<path fill="#91BD15" d="M18.511,32.829c-0.486,0.393-0.558,1.105-0.164,1.592c0.392,0.478,1.103,0.549,1.591,0.155
				c0.479-0.394,0.555-1.099,0.16-1.584C19.703,32.511,18.988,32.434,18.511,32.829z"/>
			<path fill="#91BD15" d="M17.654,29.988c-0.397-0.486-1.111-0.556-1.589-0.162c-0.486,0.394-0.56,1.106-0.164,1.584
				c0.395,0.488,1.106,0.559,1.593,0.163C17.973,31.177,18.045,30.475,17.654,29.988z"/>
			<path fill="#91BD15" d="M15.206,26.987c-0.393-0.486-1.102-0.556-1.584-0.162c-0.488,0.393-0.558,1.098-0.167,1.585
				c0.395,0.486,1.105,0.557,1.591,0.161C15.532,28.178,15.603,27.466,15.206,26.987z"/>
			<path fill="#91BD15" d="M12.763,23.984c-0.395-0.485-1.104-0.556-1.585-0.163c-0.488,0.396-0.561,1.101-0.167,1.588
				s1.101,0.556,1.589,0.162C13.086,25.175,13.156,24.464,12.763,23.984z"/>
			<path fill="#91BD15" d="M10.152,22.568c0.486-0.396,0.559-1.106,0.162-1.584c-0.388-0.488-1.101-0.559-1.584-0.17
				c-0.484,0.395-0.56,1.105-0.162,1.592C8.961,22.886,9.669,22.964,10.152,22.568z"/>
			<path fill="#91BD15" d="M18.604,39.198c-0.395-0.486-1.105-0.558-1.587-0.162c-0.416,0.339-0.526,0.901-0.303,1.367
				c0.719-0.077,1.434-0.219,2.133-0.438C18.868,39.698,18.786,39.424,18.604,39.198z"/>
			<path fill="#91BD15" d="M16.158,36.196c-0.395-0.487-1.103-0.557-1.587-0.163c-0.485,0.395-0.554,1.107-0.163,1.585
				c0.394,0.487,1.099,0.558,1.588,0.162C16.483,37.388,16.554,36.681,16.158,36.196z"/>
			<path fill="#91BD15" d="M13.553,34.779c0.487-0.386,0.555-1.108,0.162-1.584c-0.394-0.487-1.104-0.557-1.585-0.162
				c-0.487,0.394-0.559,1.105-0.166,1.585C12.357,35.103,13.063,35.174,13.553,34.779z"/>
			<path fill="#91BD15" d="M11.104,31.776c0.489-0.393,0.559-1.105,0.168-1.584c-0.396-0.486-1.107-0.557-1.59-0.162
				c-0.486,0.394-0.558,1.101-0.162,1.586C9.917,32.102,10.617,32.173,11.104,31.776z"/>
			<path fill="#91BD15" d="M8.662,28.777c0.486-0.395,0.556-1.107,0.161-1.586c-0.388-0.486-1.103-0.556-1.586-0.163
				c-0.486,0.395-0.557,1.098-0.161,1.586C7.468,29.101,8.182,29.172,8.662,28.777z"/>
			<path fill="#91BD15" d="M6.215,25.775c0.486-0.393,0.558-1.106,0.171-1.593c-0.174-0.204-0.398-0.33-0.644-0.38
				c-0.355,0.647-0.646,1.331-0.869,2.022C5.276,26.105,5.822,26.1,6.215,25.775z"/>
			<path fill="#91BD15" d="M20.208,38.93c-0.228,0.185-0.358,0.438-0.399,0.704c0.553-0.231,1.105-0.507,1.627-0.822
				C21.053,38.606,20.566,38.641,20.208,38.93z"/>
			<path fill="#91BD15" d="M19.351,36.091c-0.397-0.48-1.104-0.557-1.59-0.162c-0.483,0.394-0.557,1.106-0.164,1.594
				c0.397,0.486,1.111,0.556,1.592,0.162C19.667,37.288,19.743,36.577,19.351,36.091z"/>
			<path fill="#91BD15" d="M15.319,32.925c-0.484,0.394-0.554,1.106-0.168,1.592c0.399,0.483,1.105,0.559,1.593,0.164
				c0.484-0.395,0.556-1.105,0.164-1.587C16.509,32.609,15.796,32.539,15.319,32.925z"/>
			<path fill="#91BD15" d="M12.876,29.924c-0.486,0.395-0.558,1.106-0.164,1.593c0.394,0.479,1.104,0.556,1.586,0.162
				c0.486-0.393,0.554-1.107,0.164-1.594C14.068,29.607,13.355,29.529,12.876,29.924z"/>
			<path fill="#91BD15" d="M10.429,26.923c-0.486,0.395-0.557,1.107-0.162,1.594c0.391,0.479,1.104,0.548,1.586,0.161
				c0.486-0.395,0.557-1.105,0.165-1.593C11.628,26.606,10.909,26.529,10.429,26.923z"/>
			<path fill="#91BD15" d="M9.407,25.676c0.486-0.395,0.558-1.105,0.167-1.592c-0.395-0.479-1.107-0.559-1.588-0.163
				c-0.485,0.395-0.558,1.106-0.162,1.584C8.213,25.993,8.928,26.063,9.407,25.676z"/>
			<path fill="#91BD15" d="M6.96,22.666c0.339-0.267,0.475-0.696,0.395-1.09c-0.399,0.421-0.752,0.875-1.074,1.345
				C6.525,22.914,6.768,22.829,6.96,22.666z"/>
			<path fill="#91BD15" d="M24.142,35.723c-0.36,0.296-0.488,0.763-0.373,1.184c0.42-0.45,0.8-0.93,1.132-1.431
				C24.64,35.47,24.365,35.549,24.142,35.723z"/>
			<path fill="#91BD15" d="M21.697,32.722c-0.48,0.394-0.556,1.105-0.165,1.594c0.396,0.486,1.107,0.557,1.596,0.162
				c0.478-0.396,0.551-1.108,0.16-1.586C22.895,32.406,22.182,32.334,21.697,32.722z"/>
			<path fill="#91BD15" d="M20.842,29.882c-0.392-0.479-1.107-0.548-1.589-0.162c-0.485,0.394-0.561,1.108-0.165,1.593
				c0.397,0.481,1.105,0.558,1.591,0.163C21.164,31.079,21.239,30.37,20.842,29.882z"/>
			<path fill="#91BD15" d="M18.401,26.881c-0.396-0.479-1.111-0.558-1.589-0.162c-0.485,0.395-0.561,1.106-0.163,1.591
				c0.393,0.481,1.1,0.559,1.585,0.164C18.718,28.079,18.792,27.366,18.401,26.881z"/>
			<path fill="#91BD15" d="M15.954,23.88c-0.394-0.479-1.107-0.557-1.586-0.162c-0.486,0.394-0.56,1.106-0.163,1.594
				c0.391,0.478,1.1,0.555,1.588,0.161C16.275,25.077,16.351,24.365,15.954,23.88z"/>
			<path fill="#91BD15" d="M11.924,20.715c-0.487,0.394-0.563,1.108-0.161,1.594c0.389,0.48,1.095,0.55,1.583,0.162
				c0.483-0.395,0.558-1.106,0.162-1.593C13.114,20.392,12.402,20.32,11.924,20.715z"/>
			<path fill="#91BD15" d="M10.9,19.469c0.204-0.17,0.329-0.389,0.382-0.621c-0.522,0.218-1.036,0.479-1.528,0.776
				C10.127,19.778,10.566,19.735,10.9,19.469z"/>
			<path fill="#91BD15" d="M26.219,28.007c0.146,0.178,0.345,0.302,0.551,0.367c-0.051-0.668-0.16-1.337-0.331-1.993
				c-0.024,0.015-0.044,0.021-0.058,0.034C25.898,26.811,25.827,27.522,26.219,28.007z"/>
			<path fill="#91BD15" d="M23.938,23.416c-0.486,0.394-0.558,1.104-0.163,1.584c0.396,0.486,1.106,0.556,1.588,0.162
				c0.219-0.175,0.351-0.417,0.395-0.67c-0.201-0.423-0.417-0.838-0.672-1.239C24.712,23.098,24.27,23.139,23.938,23.416z"/>
			<path fill="#91BD15" d="M21.493,20.413c-0.484,0.393-0.559,1.107-0.164,1.584c0.395,0.487,1.105,0.556,1.589,0.162
				c0.329-0.267,0.462-0.683,0.393-1.071c-0.352-0.337-0.72-0.642-1.105-0.922C21.955,20.166,21.704,20.244,21.493,20.413z"/>
			<path fill="#91BD15" d="M20.474,19.159c0.011-0.007,0.018-0.016,0.023-0.022c-0.6-0.298-1.22-0.53-1.854-0.713
				c0.029,0.206,0.108,0.402,0.242,0.572C19.279,19.483,19.991,19.553,20.474,19.159z"/>
			<path fill="#91BD15" d="M24.889,32.623c-0.482,0.394-0.558,1.107-0.163,1.594c0.183,0.225,0.437,0.352,0.706,0.394
				c0.352-0.642,0.637-1.319,0.854-2.008C25.878,32.293,25.306,32.286,24.889,32.623z"/>
			<path fill="#91BD15" d="M22.445,29.623c-0.485,0.394-0.558,1.105-0.162,1.585c0.393,0.486,1.104,0.557,1.591,0.168
				c0.479-0.398,0.555-1.106,0.16-1.593C23.64,29.297,22.928,29.225,22.445,29.623z"/>
			<path fill="#91BD15" d="M20,26.62c-0.481,0.394-0.562,1.107-0.164,1.592c0.394,0.479,1.105,0.549,1.589,0.157
				c0.485-0.387,0.556-1.1,0.165-1.586C21.195,26.296,20.485,26.226,20,26.62z"/>
			<path fill="#91BD15" d="M17.555,23.62c-0.481,0.394-0.56,1.106-0.163,1.584c0.393,0.486,1.105,0.557,1.592,0.162
				c0.485-0.395,0.556-1.106,0.163-1.584C18.751,23.294,18.039,23.224,17.555,23.62z"/>
			<path fill="#91BD15" d="M14.952,22.201c0.388,0.487,1.1,0.557,1.586,0.163c0.483-0.394,0.557-1.101,0.162-1.586
				c-0.395-0.485-1.103-0.556-1.59-0.163C14.631,21.012,14.554,21.715,14.952,22.201z"/>
			<path fill="#91BD15" d="M12.502,19.2c0.393,0.486,1.104,0.559,1.592,0.162c0.394-0.324,0.508-0.852,0.324-1.304
				c-0.731,0.076-1.449,0.219-2.165,0.438C12.252,18.744,12.334,18.997,12.502,19.2z"/>
			<path fill="#91BD15" d="M25.634,29.523c-0.481,0.395-0.554,1.098-0.162,1.584c0.276,0.34,0.706,0.475,1.096,0.39
				c0.149-0.706,0.225-1.415,0.233-2.129C26.424,29.2,25.972,29.241,25.634,29.523z"/>
			<path fill="#91BD15" d="M23.03,28.108c0.392,0.486,1.105,0.556,1.585,0.162c0.488-0.394,0.558-1.109,0.167-1.586
				c-0.395-0.486-1.106-0.556-1.591-0.162C22.708,26.909,22.634,27.622,23.03,28.108z"/>
			<path fill="#91BD15" d="M20.584,25.104c0.393,0.487,1.105,0.557,1.587,0.162c0.486-0.394,0.557-1.105,0.164-1.585
				c-0.393-0.486-1.106-0.555-1.588-0.169C20.265,23.907,20.187,24.62,20.584,25.104z"/>
			<path fill="#91BD15" d="M18.137,22.104c0.393,0.479,1.105,0.555,1.588,0.161c0.484-0.395,0.561-1.107,0.167-1.592
				c-0.394-0.487-1.107-0.558-1.596-0.162C17.818,20.906,17.74,21.617,18.137,22.104z"/>
			<path fill="#91BD15" d="M15.697,19.101c0.395,0.48,1.103,0.557,1.589,0.163c0.323-0.267,0.455-0.677,0.393-1.065
				c-0.712-0.134-1.435-0.204-2.161-0.195C15.385,18.362,15.437,18.778,15.697,19.101z"/>
			<path fill="#91BD15" d="M12.219,39.401c-0.39-0.486-1.107-0.558-1.587-0.162c-0.022,0.016-0.032,0.034-0.054,0.05
				c0.612,0.303,1.245,0.542,1.894,0.732C12.453,39.804,12.375,39.585,12.219,39.401z"/>
			<path fill="#91BD15" d="M9.613,37.986c0.486-0.394,0.553-1.107,0.165-1.586c-0.396-0.486-1.108-0.557-1.59-0.162
				c-0.334,0.268-0.469,0.698-0.393,1.092c0.342,0.333,0.702,0.628,1.074,0.901C9.125,38.239,9.393,38.168,9.613,37.986z"/>
			<path fill="#91BD15" d="M7.173,34.983c0.481-0.394,0.548-1.105,0.16-1.585c-0.39-0.486-1.104-0.557-1.592-0.171
				c-0.208,0.179-0.335,0.411-0.384,0.66c0.194,0.429,0.417,0.851,0.674,1.262C6.398,35.302,6.837,35.258,7.173,34.983z"/>
			<path fill="#91BD15" d="M4.891,30.396c-0.14-0.176-0.323-0.289-0.516-0.36c0.045,0.664,0.156,1.319,0.316,1.965
				c0.007-0.006,0.022-0.016,0.031-0.022C5.208,31.588,5.281,30.875,4.891,30.396z"/>
			<path fill="#91BD15" d="M15.412,39.296c-0.395-0.479-1.102-0.548-1.588-0.162c-0.341,0.284-0.469,0.716-0.386,1.114
				c0.7,0.144,1.413,0.212,2.133,0.212C15.728,40.085,15.685,39.633,15.412,39.296z"/>
			<path fill="#91BD15" d="M12.969,36.295c-0.394-0.479-1.112-0.557-1.588-0.162c-0.486,0.396-0.557,1.106-0.162,1.594
				c0.393,0.479,1.104,0.556,1.587,0.162C13.286,37.491,13.358,36.781,12.969,36.295z"/>
			<path fill="#91BD15" d="M10.523,33.293c-0.396-0.48-1.105-0.555-1.588-0.161c-0.477,0.394-0.558,1.105-0.162,1.593
				c0.393,0.478,1.104,0.556,1.586,0.162C10.846,34.492,10.919,33.778,10.523,33.293z"/>
			<path fill="#91BD15" d="M8.076,30.291c-0.389-0.486-1.103-0.556-1.584-0.162c-0.483,0.394-0.561,1.105-0.162,1.592
				c0.393,0.482,1.106,0.55,1.589,0.162C8.402,31.489,8.471,30.778,8.076,30.291z"/>
			<path fill="#91BD15" d="M5.474,28.875c0.481-0.388,0.552-1.101,0.16-1.586c-0.256-0.317-0.662-0.458-1.041-0.394
				c-0.152,0.705-0.234,1.432-0.246,2.155C4.714,29.193,5.146,29.142,5.474,28.875z"/>
			<path fill="none" stroke="#A4D100" stroke-miterlimit="10" d="M7.838,20.11c-5.067,4.333-5.656,11.942-1.325,17
				c4.327,5.059,11.939,5.653,17.001,1.326c5.059-4.326,5.653-11.945,1.323-17.001C20.504,16.375,12.895,15.783,7.838,20.11z"/>
		</g>
	</g>
</g>
</svg>
