<?xml version="1.0" encoding="utf-8"?>
<!-- Generator: Adobe Illustrator 15.0.2, SVG Export Plug-In . SVG Version: 6.00 Build 0)  -->
<!DOCTYPE svg PUBLIC "-//W3C//DTD SVG 1.1//EN" "http://www.w3.org/Graphics/SVG/1.1/DTD/svg11.dtd">
<svg version="1.1" xmlns="http://www.w3.org/2000/svg" xmlns:xlink="http://www.w3.org/1999/xlink" x="0px" y="0px" width="72px"
	 height="72px" viewBox="0 0 72 72" enable-background="new 0 0 72 72" xml:space="preserve">
<g id="Layer_2">
</g>
<g id="Layer_1">
	<g>
		<path fill="#3D5683" d="M29.641,66.727V38.609h-7.437V28.487h7.437c0,0,0-4.146,0-8.652c0-6.787,4.387-13.031,14.507-13.031
			c4.095,0,7.127,0.394,7.127,0.394l-0.241,9.449c0,0-3.089-0.025-6.465-0.025c-3.642,0-4.229,1.683-4.229,4.473
			c0,2.208,0-4.705,0,7.392h10.989L50.85,38.609H40.34v28.117H29.641z"/>
		<path fill="#FFFFFF" d="M28.108,65.195V37.076h-7.437v-10.12h7.437c0,0,0-4.147,0-8.651c0-6.79,4.389-13.032,14.511-13.032
			c4.095,0,7.122,0.394,7.122,0.394l-0.236,9.45c0,0-3.089-0.025-6.463-0.025c-3.65,0-4.232,1.681-4.232,4.472
			c0,2.208,0-4.704,0,7.393h10.986l-0.482,10.12H38.81v28.119H28.108z"/>
	</g>
</g>
</svg>
