<?xml version="1.0" encoding="utf-8"?>
<!-- Generator: Adobe Illustrator 15.0.2, SVG Export Plug-In . SVG Version: 6.00 Build 0)  -->
<!DOCTYPE svg PUBLIC "-//W3C//DTD SVG 1.1//EN" "http://www.w3.org/Graphics/SVG/1.1/DTD/svg11.dtd">
<svg version="1.1" xmlns="http://www.w3.org/2000/svg" xmlns:xlink="http://www.w3.org/1999/xlink" x="0px" y="0px" width="72px"
	 height="72px" viewBox="0 0 72 72" enable-background="new 0 0 72 72" xml:space="preserve">
<g id="Layer_2">
</g>
<g id="Layer_1">
	<g>
		<path fill="#FFFFFF" d="M35.979,11.065c9.2,0,16.684,7.479,16.684,16.673c0,9.193-7.484,16.672-16.684,16.672
			c-9.193,0-16.672-7.479-16.672-16.672C19.307,18.544,26.786,11.065,35.979,11.065 M35.979,9.065
			c-10.296,0-18.672,8.377-18.672,18.673c0,10.296,8.376,18.672,18.672,18.672c10.302,0,18.684-8.376,18.684-18.672
			C54.663,17.442,46.281,9.065,35.979,9.065L35.979,9.065z"/>
	</g>
	<path fill="#FFFFFF" d="M35.992,0.167c-14.98,0-27.167,12.186-27.167,27.166c0,6.112,1.989,11.887,5.751,16.702L35.992,71.49
		l21.43-27.468c3.751-4.813,5.733-10.584,5.733-16.689C63.155,12.354,50.97,0.167,35.992,0.167z M10.471,27.487
		C10.471,13.416,21.92,2,35.992,2C35.997,2,36,2,36,2V1.814V9.42V10c0,0-0.011,0-0.021,0c-10.104,0-18.298,8-18.317,18h-7.168
		C10.49,28,10.471,27.67,10.471,27.487z M35.979,44.41c-9.193,0-16.672-7.479-16.672-16.672c0-9.194,7.479-16.673,16.672-16.673
		c9.2,0,16.684,7.479,16.684,16.673C52.663,36.932,45.179,44.41,35.979,44.41z M36,68.795v-22.74C46,46.04,54.226,38,54.303,28
		h7.184c-0.114,5-1.955,10.695-5.366,15.07L36,68.795z"/>
</g>
</svg>
