<?xml version="1.0" encoding="utf-8"?>
<!-- Generator: Adobe Illustrator 15.0.2, SVG Export Plug-In . SVG Version: 6.00 Build 0)  -->
<!DOCTYPE svg PUBLIC "-//W3C//DTD SVG 1.1//EN" "http://www.w3.org/Graphics/SVG/1.1/DTD/svg11.dtd">
<svg version="1.1" xmlns="http://www.w3.org/2000/svg" xmlns:xlink="http://www.w3.org/1999/xlink" x="0px" y="0px" width="72px"
	 height="72px" viewBox="0 0 72 72" enable-background="new 0 0 72 72" xml:space="preserve">
<g id="Layer_2">
</g>
<g id="Layer_1">
	<path fill="#FFFFFF" d="M69.998,14.911c-2.504,1.11-5.193,1.861-8.014,2.198c2.881-1.726,5.092-4.46,6.135-7.716
		c-2.699,1.599-5.682,2.759-8.859,3.385c-2.546-2.713-6.174-4.405-10.182-4.405c-7.705,0-13.951,6.244-13.951,13.949
		c0,1.094,0.123,2.158,0.364,3.18c-11.595-0.583-21.875-6.137-28.756-14.576c-1.198,2.059-1.89,4.458-1.89,7.014
		c0,4.839,2.464,9.108,6.208,11.608c-2.286-0.072-4.439-0.7-6.318-1.746c-0.001,0.058-0.001,0.117-0.001,0.177
		c0,6.76,4.809,12.398,11.188,13.677c-1.169,0.321-2.403,0.493-3.673,0.493c-0.9,0-1.771-0.089-2.623-0.252
		c1.773,5.542,6.924,9.576,13.027,9.69c-4.774,3.737-10.789,5.971-17.321,5.971c-1.126,0-2.237-0.066-3.329-0.193
		c6.172,3.956,13.506,6.265,21.383,6.265c25.661,0,39.691-21.257,39.691-39.691c0-0.604-0.015-1.208-0.043-1.806
		C65.759,20.166,68.123,17.709,69.998,14.911z"/>
</g>
</svg>
